<?xml version="1.0" encoding="UTF-8"?>
<!DOCTYPE svg PUBLIC "-//W3C//DTD SVG 1.1//EN" "http://www.w3.org/Graphics/SVG/1.1/DTD/svg11.dtd">
<svg version="1.1" xmlns="http://www.w3.org/2000/svg" xmlns:xlink="http://www.w3.org/1999/xlink" width="500" height="500"  xml:space="preserve" id="spending">
    <!-- Generated by PaintCode (www.paintcodeapp.com) -->
    <g id="spending-group">
        <path id="spending-rectangle" stroke="none" fill="rgb(255, 255, 255)" d="M 113.86,137 L 426.14,137 C 439.35,137 445.95,137 451.9,138.96 L 453.06,139.25 C 460.82,142.07 466.93,148.18 469.75,155.94 472,163.05 472,169.65 472,182.86 L 472,329.14 C 472,342.35 472,348.95 470.04,354.9 L 469.75,356.06 C 466.93,363.82 460.82,369.93 453.06,372.75 445.95,375 439.35,375 426.14,375 L 113.86,375 C 100.65,375 94.05,375 88.1,373.04 L 86.94,372.75 C 79.18,369.93 73.07,363.82 70.25,356.06 68,348.95 68,342.35 68,329.14 L 68,137 Z M 113.86,137" />
        <polygon id="spending-polygon" stroke="none" fill="rgb(255, 255, 255)" points="61.52,0 114.79,50.67 8.24,50.67" transform="translate(48.39, 93.61) rotate(45)"  />
        
        <text  fill="rgb(128, 128, 128)" font-family="HelveticaNeue, sans-serif" font-size="40" x="91" y="146"><tspan x="91" y="221">Your food spending </tspan><tspan x="91" y="269.12">this week is a little </tspan><tspan x="91" y="317.24">higher than usual. </tspan></text>
    </g>
</svg>
